STARTFONT 2.1
FONT -WRI-Mathematica1Mono-Bold-R-Normal--34-340-75-75-M-200-Adobe-FontSpecific
SIZE 34 75 75
FONTBOUNDINGBOX 48 37 -1 -8
STARTPROPERTIES 16
FOUNDRY "WRI"
FAMILY_NAME "Mathematica1Mono"
WEIGHT_NAME "Bold"
SLANT "R"
SETWIDTH_NAME "Normal"
PIXEL_SIZE 34
POINT_SIZE 340
RESOLUTION_X 75
RESOLUTION_Y 75
SPACING "M"
AVERAGE_WIDTH 200
CHARSET_REGISTRY "Adobe"
CHARSET_ENCODING "FontSpecific"
FONT_DESCENT 8
FONT_ASCENT 29
DEFAULT_CHAR 32
ENDPROPERTIES
CHARS 224
STARTCHAR Space
ENCODING 32
SWIDTH 263 0
DWIDTH 9 0
BBX 0 0 0 0
BITMAP
ENDCHAR
STARTCHAR Exclamation
ENCODING 33
SWIDTH 600 0
DWIDTH 20 0
BBX 6 20 7 -1
BITMAP
78
78
78
78
78
78
78
30
30
30
30
30
30
00
00
78
fc
fc
fc
78
ENDCHAR
STARTCHAR ForAll
ENCODING 34
SWIDTH 600 0
DWIDTH 20 0
BBX 19 19 1 0
BITMAP
f001e0
7001c0
7803c0
380380
380380
1c0700
1fff00
1fff00
0ffe00
0e0e00
071c00
071c00
031800
03b800
03b800
01f000
01f000
00e000
00e000
ENDCHAR
STARTCHAR NumberSign
ENCODING 35
SWIDTH 600 0
DWIDTH 20 0
BBX 15 23 3 -1
BITMAP
0c38
1c70
1c70
1870
1870
1870
1870
fffe
fffe
fffe
1870
18f0
18f0
fffe
fffe
fffe
10e0
10e0
30e0
31e0
31c0
31c0
31c0
ENDCHAR
STARTCHAR Exists
ENCODING 36
SWIDTH 600 0
DWIDTH 20 0
BBX 17 19 1 0
BITMAP
ffff80
ffff80
ffff80
000380
000380
000380
000380
000380
03ff80
03ff80
03ff80
000380
000380
000380
000380
000380
7fff80
7fff80
7fff80
ENDCHAR
STARTCHAR Percent
ENCODING 37
SWIDTH 600 0
DWIDTH 20 0
BBX 18 22 1 -1
BITMAP
1e0000
7f0000
7f8000
f3c000
e1c000
e1c300
f3cf80
7f9f00
7f3e00
1ef800
01f000
07de00
0fbf00
3f7f80
7cf3c0
38e1c0
20e1c0
00e1c0
00f3c0
007f80
003f00
001e00
ENDCHAR
STARTCHAR Ampersand
ENCODING 38
SWIDTH 600 0
DWIDTH 20 0
BBX 16 19 2 -1
BITMAP
0780
1fe0
3ff0
3860
3820
3800
1c00
1e00
3e1e
7f3e
7fbe
f3b8
e1f0
e1f0
e0f0
f1ff
7fff
3fbf
1e00
ENDCHAR
STARTCHAR SmallMember
ENCODING 39
SWIDTH 600 0
DWIDTH 20 0
BBX 16 16 1 -1
BITMAP
07f0
3ffc
7ffe
781e
2007
0007
1fff
3fff
3fff
000f
000e
401e
703c
7ff8
fff0
1fc0
ENDCHAR
STARTCHAR LParen
ENCODING 40
SWIDTH 600 0
DWIDTH 20 0
BBX 8 27 9 -6
BITMAP
07
0e
1c
1c
38
38
78
70
70
f0
e0
e0
e0
e0
e0
e0
e0
f0
70
70
78
38
38
1c
1c
0e
07
ENDCHAR
STARTCHAR RParen
ENCODING 41
SWIDTH 600 0
DWIDTH 20 0
BBX 8 27 4 -6
BITMAP
e0
70
70
38
3c
1c
1e
0e
0e
0e
07
07
07
07
07
07
07
0f
0e
0e
1e
1c
3c
38
70
70
e0
ENDCHAR
STARTCHAR Star
ENCODING 42
SWIDTH 600 0
DWIDTH 20 0
BBX 14 14 3 0
BITMAP
0380
0380
0380
4388
7bb8
fffc
fffc
1fe0
0fc0
0fe0
1ef0
3cf0
1c70
0820
ENDCHAR
STARTCHAR Plus
ENCODING 43
SWIDTH 600 0
DWIDTH 20 0
BBX 13 13 4 1
BITMAP
0700
0700
0700
0700
0700
fff8
fff8
fff8
0700
0700
0700
0700
0700
ENDCHAR
STARTCHAR Comma
ENCODING 44
SWIDTH 600 0
DWIDTH 20 0
BBX 7 9 5 -3
BITMAP
3e
3e
3c
7c
78
78
f0
f0
f0
ENDCHAR
STARTCHAR Minus
ENCODING 45
SWIDTH 600 0
DWIDTH 20 0
BBX 14 3 3 6
BITMAP
fffc
fffc
fffc
ENDCHAR
STARTCHAR Period
ENCODING 46
SWIDTH 600 0
DWIDTH 20 0
BBX 6 6 7 -1
BITMAP
78
fc
fc
fc
fc
78
ENDCHAR
STARTCHAR Slash
ENCODING 47
SWIDTH 600 0
DWIDTH 20 0
BBX 14 25 3 -3
BITMAP
0010
003c
0038
0078
0070
0070
00e0
00e0
01c0
01c0
0380
0380
0780
0700
0700
0e00
0e00
1c00
1c00
3800
3800
7800
7000
f000
2000
ENDCHAR
STARTCHAR Zero
ENCODING 48
SWIDTH 600 0
DWIDTH 20 0
BBX 14 22 3 -1
BITMAP
0fc0
1fe0
3ff0
7878
7038
7038
e03c
e01c
e01c
e01c
e01c
e01c
e01c
e01c
e01c
f01c
7038
7038
7878
3ff0
1fe0
0fc0
ENDCHAR
STARTCHAR One
ENCODING 49
SWIDTH 600 0
DWIDTH 20 0
BBX 13 21 4 0
BITMAP
0700
1f00
7f00
ff00
e700
4700
0700
0700
0700
0700
0700
0700
0700
0700
0700
0700
0700
0700
fff8
fff8
fff8
ENDCHAR
STARTCHAR Two
ENCODING 50
SWIDTH 600 0
DWIDTH 20 0
BBX 15 21 2 0
BITMAP
07e0
1ff0
3ff8
7c3c
701e
700e
000e
000e
001e
001c
003c
0078
01f0
03e0
07c0
0f0e
3e0e
7c0e
fffe
fffe
fffe
ENDCHAR
STARTCHAR Three
ENCODING 51
SWIDTH 600 0
DWIDTH 20 0
BBX 14 22 3 -1
BITMAP
0f80
3fe0
fff0
f878
6038
0038
0038
0078
00f0
07f0
07f0
07f8
0078
001c
001c
001c
001c
403c
f078
fff8
7fe0
1fc0
ENDCHAR
STARTCHAR Four
ENCODING 52
SWIDTH 600 0
DWIDTH 20 0
BBX 15 21 2 0
BITMAP
00f0
00f0
01f0
03f0
03f0
0770
0e70
0e70
1c70
3870
3870
7070
7070
fffe
fffe
fffe
0070
0070
0ffe
0ffe
0ffe
ENDCHAR
STARTCHAR Five
ENCODING 53
SWIDTH 600 0
DWIDTH 20 0
BBX 14 21 3 -1
BITMAP
7ff8
7ff8
7ff8
7000
7000
7000
7fc0
7fe0
7ff0
7878
2038
001c
001c
001c
001c
001c
403c
e078
fff0
ffe0
1fc0
ENDCHAR
STARTCHAR Six
ENCODING 54
SWIDTH 600 0
DWIDTH 20 0
BBX 14 22 3 -1
BITMAP
00fc
07fc
0ffc
1f00
3c00
3800
7800
7000
f7c0
fff0
fff8
fc78
f83c
f01c
f01c
f01c
701c
783c
3c78
3ff8
1ff0
07c0
ENDCHAR
STARTCHAR Seven
ENCODING 55
SWIDTH 600 0
DWIDTH 20 0
BBX 15 20 2 0
BITMAP
fffe
fffe
fffc
e01c
e03c
e038
0038
0078
0070
0070
00e0
00e0
01e0
01c0
01c0
03c0
0380
0780
0700
0f00
ENDCHAR
STARTCHAR Eight
ENCODING 56
SWIDTH 600 0
DWIDTH 20 0
BBX 14 22 3 -1
BITMAP
07c0
1ff0
3ff8
3878
701c
701c
701c
783c
3c78
3ff8
1ff0
3ff8
7878
f03c
e01c
e01c
e01c
f03c
7878
3ff8
1ff0
07c0
ENDCHAR
STARTCHAR Nine
ENCODING 57
SWIDTH 600 0
DWIDTH 20 0
BBX 14 22 3 -1
BITMAP
0f80
3fc0
7fe0
78f0
f078
e038
e03c
e03c
e03c
f07c
78fc
7ffc
3ffc
0fbc
0038
0078
0070
00f0
03e0
ffc0
ff80
fc00
ENDCHAR
STARTCHAR Colon
ENCODING 58
SWIDTH 600 0
DWIDTH 20 0
BBX 6 15 7 -1
BITMAP
78
fc
fc
fc
fc
78
00
00
00
78
fc
fc
fc
fc
78
ENDCHAR
STARTCHAR SemiColon
ENCODING 59
SWIDTH 600 0
DWIDTH 20 0
BBX 8 17 5 -3
BITMAP
1e
3f
3f
3f
3f
1e
00
00
1e
3e
3c
7c
78
78
f8
f0
f0
ENDCHAR
STARTCHAR Less
ENCODING 60
SWIDTH 600 0
DWIDTH 20 0
BBX 15 19 3 -2
BITMAP
0002
000e
001e
007e
01f8
03e0
0fc0
1f00
7c00
f800
7e00
1f00
0fc0
03e0
01f8
007e
001e
000e
0002
ENDCHAR
STARTCHAR Equal
ENCODING 61
SWIDTH 600 0
DWIDTH 20 0
BBX 14 9 3 3
BITMAP
fffc
fffc
fffc
0000
0000
0000
fffc
fffc
fffc
ENDCHAR
STARTCHAR Greater
ENCODING 62
SWIDTH 600 0
DWIDTH 20 0
BBX 16 19 3 -2
BITMAP
c000
f000
f800
fe00
3f80
0fc0
07f0
01f8
007e
003f
00fe
01f8
07f0
0fc0
3f80
fe00
f800
f000
c000
ENDCHAR
STARTCHAR Question
ENCODING 63
SWIDTH 600 0
DWIDTH 20 0
BBX 13 21 4 -1
BITMAP
3f80
ffe0
fff0
e0f0
e078
e038
0038
0078
00f0
0ff0
0fc0
0f80
0e00
0e00
0000
0000
0e00
3f00
3f00
3f00
0e00
ENDCHAR
STARTCHAR TildeFullEqual
ENCODING 64
SWIDTH 600 0
DWIDTH 20 0
BBX 15 14 2 1
BITMAP
1e08
3f9e
7ffc
f3f8
20f0
0000
7ffc
7ffc
7ffc
0000
0000
7ffc
7ffc
7ffc
ENDCHAR
STARTCHAR CapAlpha
ENCODING 65
SWIDTH 600 0
DWIDTH 20 0
BBX 20 19 0 0
BITMAP
007000
00f000
00f000
01f800
01f800
039c00
039c00
039c00
070e00
070e00
0fff00
0fff00
1fff80
1c0380
1c0380
3c01c0
ff0ff0
ff0ff0
ff0ff0
ENDCHAR
STARTCHAR CapBeta
ENCODING 66
SWIDTH 600 0
DWIDTH 20 0
BBX 18 19 1 0
BITMAP
fff800
fffe00
ffff00
1c0780
1c0380
1c0380
1c0380
1c0700
1fff00
1ffe00
1fff80
1c0780
1c01c0
1c01c0
1c01c0
1c03c0
ffff80
ffff00
fffc00
ENDCHAR
STARTCHAR CapChi
ENCODING 67
SWIDTH 600 0
DWIDTH 20 0
BBX 18 19 1 0
BITMAP
7fbfc0
7fbfc0
7fbfc0
0e0e00
0f1e00
07bc00
03b800
01f000
00e000
00e000
01f000
03b800
07bc00
0f1e00
0e0e00
1e0f00
ffbfc0
ffbfc0
ffbfc0
ENDCHAR
STARTCHAR CapDelta
ENCODING 68
SWIDTH 600 0
DWIDTH 20 0
BBX 20 19 0 0
BITMAP
006000
00f000
00f000
01f800
01f800
039c00
039c00
070e00
070e00
070e00
0e0700
0e0700
1c0380
1c0380
3801c0
3801c0
7fffe0
7fffe0
fffff0
ENDCHAR
STARTCHAR CapEpsilon
ENCODING 69
SWIDTH 600 0
DWIDTH 20 0
BBX 17 19 2 0
BITMAP
ffff00
ffff00
ffff00
1c0700
1c0700
1c0700
1c7700
1c7000
1ff000
1ff000
1ff000
1c7000
1c7780
1c0780
1c0780
1c0780
ffff80
ffff80
ffff80
ENDCHAR
STARTCHAR CapPhi
ENCODING 70
SWIDTH 600 0
DWIDTH 20 0
BBX 17 19 2 0
BITMAP
3ffe00
3ffe00
3ffe00
01c000
0ff800
3ffe00
7ddf00
f1c780
e1c380
e1c380
e1c380
79cf00
7fff00
3ffe00
07f000
01c000
3ffe00
3ffe00
3ffe00
ENDCHAR
STARTCHAR CapGamma
ENCODING 71
SWIDTH 600 0
DWIDTH 20 0
BBX 17 19 2 0
BITMAP
ffff80
ffff80
ffff80
1c0380
1c0380
1c0380
1c0380
1c0000
1c0000
1c0000
1c0000
1c0000
1c0000
1c0000
1c0000
1c0000
ff8000
ff8000
ff8000
ENDCHAR
STARTCHAR CapEta
ENCODING 72
SWIDTH 600 0
DWIDTH 20 0
BBX 17 19 2 0
BITMAP
fe3f80
fe3f80
fe3f80
380e00
380e00
380e00
380e00
380e00
3ffe00
3ffe00
3ffe00
380e00
380e00
380e00
380e00
380e00
fe3f80
fe3f80
fe3f80
ENDCHAR
STARTCHAR CapIota
ENCODING 73
SWIDTH 600 0
DWIDTH 20 0
BBX 13 19 4 0
BITMAP
fff8
fff8
fff8
0700
0700
0700
0700
0700
0700
0700
0700
0700
0700
0700
0700
0700
fff8
fff8
fff8
ENDCHAR
STARTCHAR CurlyTheta
ENCODING 74
SWIDTH 600 0
DWIDTH 20 0
BBX 18 21 1 -1
BITMAP
003c00
00fe00
00ff00
11e700
19c380
3dc380
39c380
79e380
70e380
f0fb80
e07f80
e03fc0
e00fc0
e007c0
e00f00
e00e00
701e00
783c00
3ff800
1ff000
0fc000
ENDCHAR
STARTCHAR CapKappa
ENCODING 75
SWIDTH 600 0
DWIDTH 20 0
BBX 18 19 2 0
BITMAP
fe7f80
fe7f80
fe7f80
383c00
387800
38f000
39e000
3bc000
3fc000
3fe000
3ff000
38f000
387800
383800
381c00
381c00
fe0fc0
fe0fc0
fe0fc0
ENDCHAR
STARTCHAR CapLambda
ENCODING 76
SWIDTH 600 0
DWIDTH 20 0
BBX 20 19 0 0
BITMAP
007000
00f000
00f000
01f800
01f800
039c00
039c00
039c00
070e00
070e00
0e0700
0e0700
1e0780
1c0380
1c0380
3c01c0
ff0ff0
ff0ff0
ff0ff0
ENDCHAR
STARTCHAR CapMu
ENCODING 77
SWIDTH 600 0
DWIDTH 20 0
BBX 20 19 0 0
BITMAP
fe03f0
fe03f0
fe07f0
1f07c0
1f0fc0
1f0fc0
1f8fc0
1d9dc0
1dddc0
1df9c0
1cf9c0
1cf1c0
1c71c0
1c61c0
1c61c0
1c01c0
ff9ff0
ff9ff0
ff9ff0
ENDCHAR
STARTCHAR CapNu
ENCODING 78
SWIDTH 600 0
DWIDTH 20 0
BBX 19 19 1 0
BITMAP
fc3fe0
fc3fe0
fe3fe0
3f0380
3f0380
3f8380
3bc380
3bc380
39e380
38e380
38f380
387b80
383b80
383f80
381f80
380f80
ff8f80
ff8780
ff8780
ENDCHAR
STARTCHAR CapOmicron
ENCODING 79
SWIDTH 600 0
DWIDTH 20 0
BBX 18 21 1 -1
BITMAP
03f000
0ffc00
1ffe00
3e1f00
780780
700380
700380
e001c0
e001c0
e001c0
e001c0
e001c0
e001c0
e001c0
700380
700380
780780
3e1f00
1ffe00
0ffc00
03f000
ENDCHAR
STARTCHAR CapPi
ENCODING 80
SWIDTH 600 0
DWIDTH 20 0
BBX 17 19 2 0
BITMAP
ffff80
ffff80
ffff80
380e00
380e00
380e00
380e00
380e00
380e00
380e00
380e00
380e00
380e00
380e00
380e00
380e00
fe3f80
fe3f80
fe3f80
ENDCHAR
STARTCHAR CapTheta
ENCODING 81
SWIDTH 600 0
DWIDTH 20 0
BBX 18 21 1 -1
BITMAP
03f000
0ffc00
1ffe00
3e1f00
3c0700
780380
700380
f003c0
e71dc0
e7fdc0
e7fdc0
e7fdc0
e71dc0
f001c0
700380
780380
7c0780
3e0f00
1ffe00
0ffc00
03f000
ENDCHAR
STARTCHAR CapRho
ENCODING 82
SWIDTH 600 0
DWIDTH 20 0
BBX 16 19 3 0
BITMAP
fff0
fffc
fffe
381e
3807
3807
3807
3807
381f
3ffe
3ffc
3ff0
3800
3800
3800
3800
ffc0
ffc0
ffc0
ENDCHAR
STARTCHAR CapSigma
ENCODING 83
SWIDTH 600 0
DWIDTH 20 0
BBX 17 19 2 0
BITMAP
7fff00
7fff00
7fff00
3c0700
1e0700
0e0700
0f0700
078000
03c000
01e000
03c000
078000
0f0380
1e0380
3c0380
780380
ffff80
ffff80
ffff80
ENDCHAR
STARTCHAR CapTau
ENCODING 84
SWIDTH 600 0
DWIDTH 20 0
BBX 18 19 1 0
BITMAP
7fff80
ffffc0
ffffc0
f0e3c0
f0e1c0
e0e1c0
e0e1c0
00e000
00e000
00e000
00e000
00e000
00e000
00e000
00e000
00e000
07fc00
07fc00
07fc00
ENDCHAR
STARTCHAR CapUpsilon
ENCODING 85
SWIDTH 600 0
DWIDTH 20 0
BBX 18 19 1 0
BITMAP
fc07c0
fe0fc0
ff1fc0
07bc00
03b800
01f000
01f000
01e000
00e000
00e000
00e000
00e000
00e000
00e000
00e000
00e000
07fc00
07fc00
07fc00
ENDCHAR
STARTCHAR CapSigma2
ENCODING 86
SWIDTH 600 0
DWIDTH 20 0
BBX 17 20 2 -5
BITMAP
01fc00
07fe00
1fff00
3e0780
380380
700380
f00000
e00000
e00000
e00000
e00000
f00000
780000
3fe000
1ffc00
03fe00
000e00
003e00
00fc00
007000
ENDCHAR
STARTCHAR CapOmega
ENCODING 87
SWIDTH 600 0
DWIDTH 20 0
BBX 18 20 1 0
BITMAP
03f000
1ffe00
3fff00
7c0f80
780780
700380
e001c0
e001c0
e001c0
e001c0
e001c0
e001c0
700380
700380
380f00
1e1e00
061800
fe1fc0
fe1fc0
fe1fc0
ENDCHAR
STARTCHAR CapXi
ENCODING 88
SWIDTH 600 0
DWIDTH 20 0
BBX 18 19 1 0
BITMAP
7fffc0
7fffc0
7fffc0
7001c0
f001c0
e001c0
ee1dc0
0e1c00
0ffc00
0ffc00
0ffc00
0e1c00
ee1dc0
e001c0
f001c0
7001c0
7fffc0
7fffc0
7fffc0
ENDCHAR
STARTCHAR CapPsi
ENCODING 89
SWIDTH 600 0
DWIDTH 20 0
BBX 17 19 2 0
BITMAP
3ffe00
3ffe00
3ffe00
01c000
01c000
e1c380
e1c380
e1c380
e1c380
e1c380
f1c780
79cf00
3ffe00
1ffc00
07f000
01c000
3ffe00
3ffe00
3ffe00
ENDCHAR
STARTCHAR CapZeta
ENCODING 90
SWIDTH 600 0
DWIDTH 20 0
BBX 15 19 3 0
BITMAP
fffc
fffc
fffc
e038
e078
e0f0
e1e0
01c0
03c0
0780
0f00
0e0e
1e0e
3c0e
780e
f00e
fffe
fffe
fffe
ENDCHAR
STARTCHAR LBracket
ENCODING 91
SWIDTH 600 0
DWIDTH 20 0
BBX 8 26 9 -5
BITMAP
ff
ff
ff
e0
e0
e0
e0
e0
e0
e0
e0
e0
e0
e0
e0
e0
e0
e0
e0
e0
e0
e0
e0
ff
ff
ff
ENDCHAR
STARTCHAR Therefore
ENCODING 92
SWIDTH 600 0
DWIDTH 20 0
BBX 18 17 1 -1
BITMAP
01e000
03f000
03f000
03f000
03f000
01e000
000000
000000
000000
000000
000000
380700
fc0f80
fc0fc0
fc0fc0
7c0f80
380700
ENDCHAR
STARTCHAR RBracket
ENCODING 93
SWIDTH 600 0
DWIDTH 20 0
BBX 7 26 5 -5
BITMAP
fe
fe
fe
0e
0e
0e
0e
0e
0e
0e
0e
0e
0e
0e
0e
0e
0e
0e
0e
0e
0e
0e
0e
fe
fe
fe
ENDCHAR
STARTCHAR Perpendicular
ENCODING 94
SWIDTH 600 0
DWIDTH 20 0
BBX 18 17 2 0
BITMAP
01c000
01c000
01c000
01c000
01c000
01c000
01c000
01c000
01c000
01c000
01c000
01c000
01c000
01c000
ffffc0
ffffc0
ffffc0
ENDCHAR
STARTCHAR Underbar
ENCODING 95
SWIDTH 600 0
DWIDTH 20 0
BBX 18 3 1 -8
BITMAP
ffffc0
ffffc0
ffffc0
ENDCHAR
STARTCHAR Hat
ENCODING 96
SWIDTH 600 0
DWIDTH 20 0
BBX 12 6 4 1
BITMAP
0f00
1f80
3fc0
79e0
e070
c030
ENDCHAR
STARTCHAR Alpha
ENCODING 97
SWIDTH 600 0
DWIDTH 20 0
BBX 18 17 1 -1
BITMAP
000080
07e1c0
0ff9c0
3fffc0
3c3f80
781f80
701f00
f00f00
e00e00
e01e00
e03e00
e03e00
e07e00
71efc0
7fe7c0
3fc7c0
1f0000
ENDCHAR
STARTCHAR Beta
ENCODING 98
SWIDTH 600 0
DWIDTH 20 0
BBX 17 26 1 -5
BITMAP
007c00
01fe00
03ff00
078780
070380
0e0380
0e0380
0e0780
1e0f00
1cfe00
1cfc00
1cff00
1c0f00
3c0780
380380
380380
380380
780380
710700
73ff00
77fe00
70f800
f00000
e00000
e00000
e00000
ENDCHAR
STARTCHAR Chi
ENCODING 99
SWIDTH 600 0
DWIDTH 20 0
BBX 21 20 -1 -5
BITMAP
078078
1fc0f0
1fc0e0
09e1e0
08e3c0
00e780
007f00
007e00
007c00
007800
00f800
01f800
03dc00
079c00
0f1c00
1e1e20
3c0e60
380fe0
7007e0
e00380
ENDCHAR
STARTCHAR Delta
ENCODING 100
SWIDTH 600 0
DWIDTH 20 0
BBX 16 22 2 -1
BITMAP
00fc
01ff
03ff
0783
0700
0780
03f0
01f8
07fc
1fde
3e0f
7807
7007
e007
e007
e00f
e00e
f01e
f87c
7ff8
3ff0
0fc0
ENDCHAR
STARTCHAR Epsilon
ENCODING 101
SWIDTH 600 0
DWIDTH 20 0
BBX 15 16 2 -1
BITMAP
03f0
0ffe
3ffc
3c0c
7000
7000
fff8
fff8
fff8
e000
e000
f00c
783c
7ffe
3ff8
0fe0
ENDCHAR
STARTCHAR Phi
ENCODING 102
SWIDTH 600 0
DWIDTH 20 0
BBX 18 26 1 -5
BITMAP
003c00
003800
003800
003800
007800
007000
03fc00
0fff00
1fff80
3cf780
78e3c0
70e1c0
e0e1c0
e1e1c0
e1c1c0
e1c3c0
e1c380
71c780
7fdf00
3ffe00
1ff800
03c000
078000
078000
070000
070000
ENDCHAR
STARTCHAR Gamma
ENCODING 103
SWIDTH 600 0
DWIDTH 20 0
BBX 19 21 1 -5
BITMAP
000040
f000e0
fc03e0
ff07c0
1f8f80
07de00
03fc00
01f800
00f000
00f000
01f000
01f800
03b800
03b800
073800
073800
073800
077800
07f000
03f000
01c000
ENDCHAR
STARTCHAR Eta
ENCODING 104
SWIDTH 600 0
DWIDTH 20 0
BBX 17 22 1 -7
BITMAP
787e00
fdff00
5fff80
2fc380
1f0380
1e0380
1c0380
1c0700
1c0700
380700
380700
380700
380e00
700e00
700e00
700e00
001c00
001c00
001c00
001c00
003800
003800
ENDCHAR
STARTCHAR Iota
ENCODING 105
SWIDTH 600 0
DWIDTH 20 0
BBX 13 16 5 -1
BITMAP
3800
3800
3800
7800
7000
7000
7000
7000
e000
e000
e000
e008
f078
fff8
7ff0
3f80
ENDCHAR
STARTCHAR CurlyPhi
ENCODING 106
SWIDTH 600 0
DWIDTH 20 0
BBX 18 21 1 -5
BITMAP
080000
1c1e00
1e3f80
3c7f80
3873c0
70f1c0
70e1c0
e0e1c0
e0e1c0
e1c1c0
e1c380
e1c780
f1cf80
7bdf00
3ffe00
1ff800
07c000
038000
070000
070000
070000
ENDCHAR
STARTCHAR Kappa
ENCODING 107
SWIDTH 600 0
DWIDTH 20 0
BBX 21 15 0 0
BITMAP
1f00f8
1f03f0
1f0ff0
071f00
077e00
07f800
07e000
0ff000
0f7800
0e3c00
0e1e00
1c1f00
7c0f00
7c07e0
f803e0
ENDCHAR
STARTCHAR Lambda
ENCODING 108
SWIDTH 600 0
DWIDTH 20 0
BBX 21 21 0 0
BITMAP
07c000
07f000
07f800
003c00
001e00
000e00
000e00
000e00
000f00
001f00
003f00
003f00
007700
00f700
01e700
03c700
078780
0f83c0
ff03f8
fe01f8
f80078
ENDCHAR
STARTCHAR Mu
ENCODING 109
SWIDTH 600 0
DWIDTH 20 0
BBX 18 20 0 -5
BITMAP
0e0380
0e0380
0e0380
0e0380
0e0700
1c0700
1c0700
1c0700
1c0e00
1c0e00
381e00
383e00
3c7fc0
3fff80
7fc780
778000
700000
700000
700000
e00000
ENDCHAR
STARTCHAR Nu
ENCODING 110
SWIDTH 600 0
DWIDTH 20 0
BBX 18 16 1 0
BITMAP
600000
7801c0
fc03c0
3e0780
1f0700
0f0f00
070e00
079e00
039c00
03b800
03f800
03f000
03e000
01e000
01c000
01c000
ENDCHAR
STARTCHAR Omicron
ENCODING 111
SWIDTH 600 0
DWIDTH 20 0
BBX 17 16 2 -1
BITMAP
03f800
0ffc00
1fff00
3e0f00
780780
700380
e00380
e00380
e00380
e00380
e00700
f00f00
783e00
3ffc00
1ff800
0fe000
ENDCHAR
STARTCHAR Pi
ENCODING 112
SWIDTH 600 0
DWIDTH 20 0
BBX 20 15 1 0
BITMAP
7ffff0
7ffff0
7fffe0
038700
038700
038e00
078e00
070e00
0f0e00
0e0e00
1e0e00
3c0f00
f80700
f00780
400200
ENDCHAR
STARTCHAR Theta
ENCODING 113
SWIDTH 600 0
DWIDTH 20 0
BBX 18 21 1 -1
BITMAP
00fc00
03fe00
0fff00
1f0780
1e0380
3c03c0
3801c0
7001c0
7001c0
ffffc0
ffffc0
ffffc0
e00380
e00380
e00780
e00f00
701f00
783e00
3ffc00
1ff000
07c000
ENDCHAR
STARTCHAR Rho
ENCODING 114
SWIDTH 600 0
DWIDTH 20 0
BBX 19 20 0 -5
BITMAP
007e00
01ff00
03ff80
0783c0
0f01e0
0e00e0
0e00e0
1c00e0
1c00e0
1c01e0
1c01c0
3c03c0
3f0780
3fff00
3bfe00
71f800
700000
700000
700000
e00000
ENDCHAR
STARTCHAR Sigma
ENCODING 115
SWIDTH 600 0
DWIDTH 20 0
BBX 19 16 2 -1
BITMAP
03ffe0
0fffe0
3fffe0
3c1e00
780e00
700700
e00700
e00700
e00700
e00700
e00e00
f01e00
783c00
7ffc00
3ff000
0fc000
ENDCHAR
STARTCHAR Tau
ENCODING 116
SWIDTH 600 0
DWIDTH 20 0
BBX 14 16 3 -1
BITMAP
7ffc
fffc
fffc
0700
0e00
0e00
0e00
0e00
1c00
1c00
1c00
1c04
1c3c
1ffc
0ff8
07c0
ENDCHAR
STARTCHAR Upsilon
ENCODING 117
SWIDTH 600 0
DWIDTH 20 0
BBX 18 17 2 -1
BITMAP
200000
f003c0
7007c0
780fc0
380e00
380e00
381e00
381c00
701c00
701c00
e01c00
e03c00
e03800
f0f800
7ff000
3fe000
1f8000
ENDCHAR
STARTCHAR CurlyPi
ENCODING 118
SWIDTH 600 0
DWIDTH 20 0
BBX 20 16 1 -1
BITMAP
7ffff0
fffff0
fffff0
3801c0
7801c0
70e1c0
70e1c0
e0e1c0
e1c1c0
e1c3c0
e1c380
e1c380
f3c780
7fff00
7ffe00
3c7c00
ENDCHAR
STARTCHAR Omega
ENCODING 119
SWIDTH 600 0
DWIDTH 20 0
BBX 18 17 1 -1
BITMAP
080100
0e0380
1c0380
3c03c0
3801c0
78e1c0
70e1c0
70e1c0
e0e1c0
e1c1c0
e1c3c0
e1c380
e1c380
f3c780
7fff00
7ffe00
3c7c00
ENDCHAR
STARTCHAR Xi
ENCODING 120
SWIDTH 600 0
DWIDTH 20 0
BBX 18 26 3 -5
BITMAP
00fe00
03ff80
0fffc0
0f0380
1e0000
1c0000
1c0000
1e0000
0ffc00
0ffc00
1ff800
3c0000
700000
e00000
e00000
e00000
e00000
f80000
7ff000
1ff800
01fc00
001c00
103c00
1ff800
3ff800
0fe000
ENDCHAR
STARTCHAR Psi
ENCODING 121
SWIDTH 600 0
DWIDTH 20 0
BBX 19 26 2 -5
BITMAP
003800
007000
007000
007000
007000
106000
70e0e0
70e3e0
78e7c0
38e780
38e700
39c700
39c700
71ce00
71ce00
e1ce00
e38e00
e39c00
fbfc00
7ff800
3ff000
078000
070000
070000
070000
0e0000
ENDCHAR
STARTCHAR Zeta
ENCODING 122
SWIDTH 600 0
DWIDTH 20 0
BBX 19 26 1 -5
BITMAP
000f80
0c3fc0
1cffe0
1ff0e0
0fc1e0
07ffc0
07ffc0
0f3f00
0e0000
1c0000
1c0000
1c0000
380000
380000
380000
380000
3e0000
1ff000
0ffc00
03fe00
400f00
600700
f80f00
7ffe00
1ffe00
07f800
ENDCHAR
STARTCHAR LBrace
ENCODING 123
SWIDTH 600 0
DWIDTH 20 0
BBX 9 27 6 -6
BITMAP
0380
0f80
0f80
1e00
1c00
1c00
1c00
1c00
1c00
1c00
1c00
3c00
f800
f000
f800
3c00
1c00
1c00
1c00
1c00
1c00
1c00
1c00
1e00
0f80
0f80
0380
ENDCHAR
STARTCHAR VertBar
ENCODING 124
SWIDTH 600 0
DWIDTH 20 0
BBX 3 27 9 -6
BITMAP
e0
e0
e0
e0
e0
e0
e0
e0
e0
e0
e0
e0
e0
e0
e0
e0
e0
e0
e0
e0
e0
e0
e0
e0
e0
e0
e0
ENDCHAR
STARTCHAR RBrace
ENCODING 125
SWIDTH 600 0
DWIDTH 20 0
BBX 10 27 5 -6
BITMAP
f000
fc00
fc00
1e00
0e00
0e00
0e00
0e00
0e00
0e00
0e00
0e00
07c0
03c0
07c0
0f00
0e00
0e00
0e00
0e00
0e00
0e00
0e00
1e00
fc00
fc00
f000
ENDCHAR
STARTCHAR Tilde
ENCODING 126
SWIDTH 600 0
DWIDTH 20 0
BBX 15 5 2 5
BITMAP
1e08
3f9e
7ffc
f3f8
20f0
ENDCHAR
STARTCHAR DEL
ENCODING 127
SWIDTH 263 0
DWIDTH 9 0
BBX 0 0 0 0
BITMAP
ENDCHAR
STARTCHAR FractionBarExt
ENCODING 128
SWIDTH 240 0
DWIDTH 8 0
BBX 8 3 0 6
BITMAP
ff
ff
ff
ENDCHAR
STARTCHAR EscapeChar
ENCODING 129
SWIDTH 291 0
DWIDTH 10 0
BBX 6 19 2 -3
BITMAP
fc
fc
00
00
00
00
00
00
00
fc
fc
00
00
00
00
00
00
fc
fc
ENDCHAR
STARTCHAR SelectPlaceholder
ENCODING 130
SWIDTH 600 0
DWIDTH 20 0
BBX 17 16 2 0
BITMAP
ffff80
ffff80
ffff80
ffff80
ffff80
ffff80
ffff80
ffff80
ffff80
ffff80
ffff80
ffff80
ffff80
ffff80
ffff80
ffff80
ENDCHAR
STARTCHAR Placeholder
ENCODING 131
SWIDTH 600 0
DWIDTH 20 0
BBX 16 16 2 0
BITMAP
ffff
8001
8001
8001
8001
8001
8001
8001
8001
8001
8001
8001
8001
8001
8001
ffff
ENDCHAR
STARTCHAR Continuation
ENCODING 132
SWIDTH 600 0
DWIDTH 20 0
BBX 9 15 6 0
BITMAP
6000
f000
f000
6000
0000
0000
1800
3c00
3c00
1800
0000
0300
0780
0780
0300
ENDCHAR
STARTCHAR Skeleton
ENCODING 133
SWIDTH 600 0
DWIDTH 20 0
BBX 10 5 5 5
BITMAP
ffc0
ffc0
ffc0
ffc0
ffc0
ENDCHAR
STARTCHAR LSkeleton
ENCODING 134
SWIDTH 1200 0
DWIDTH 41 0
BBX 34 15 3 0
BITMAP
0000400180
0003e00780
000fc01fc0
003f00fc00
01f803f000
07e00fc000
1f807e0000
fc01f80000
1f807e0000
07e00fc000
01f803f000
003f00fc00
000fc01fc0
0003e00780
0000400180
ENDCHAR
STARTCHAR RSkeleton
ENCODING 135
SWIDTH 1200 0
DWIDTH 41 0
BBX 35 15 3 0
BITMAP
7000c00000
7c01f80000
ff00fe0000
0fe03f8000
03f807f000
00fe01fc00
001fc07f00
0007f00fe0
001fc07f00
00fe01fc00
03f807f000
0fe03f8000
ff00fe0000
7c01f80000
7000c00000
ENDCHAR
STARTCHAR Spacer
ENCODING 136
SWIDTH 600 0
DWIDTH 20 0
BBX 19 7 1 -6
BITMAP
e000e0
e000e0
e000e0
e000e0
ffffe0
ffffe0
ffffe0
ENDCHAR
STARTCHAR Cross
ENCODING 137
SWIDTH 600 0
DWIDTH 20 0
BBX 12 11 4 2
BITMAP
2040
f0f0
79e0
3fc0
1f80
0f00
1f80
3fc0
79e0
f0f0
2040
ENDCHAR
STARTCHAR DblEqual
ENCODING 138
SWIDTH 798 0
DWIDTH 27 0
BBX 21 9 3 3
BITMAP
ff8ff8
ff8ff8
ff8ff8
000000
000000
000000
ff8ff8
ff8ff8
ff8ff8
ENDCHAR
STARTCHAR Grave
ENCODING 139
SWIDTH 600 0
DWIDTH 20 0
BBX 8 5 6 1
BITMAP
f8
78
3c
1e
07
ENDCHAR
STARTCHAR Acute
ENCODING 140
SWIDTH 600 0
DWIDTH 20 0
BBX 8 5 6 1
BITMAP
1f
1e
3c
78
f0
ENDCHAR
STARTCHAR DoubleAcute
ENCODING 141
SWIDTH 600 0
DWIDTH 20 0
BBX 15 5 3 1
BITMAP
1f1e
3e3c
3878
70f0
e1e0
ENDCHAR
STARTCHAR OverTilde
ENCODING 142
SWIDTH 600 0
DWIDTH 20 0
BBX 13 5 4 2
BITMAP
3810
7e18
e738
c3f0
40e0
ENDCHAR
STARTCHAR OverBar
ENCODING 143
SWIDTH 600 0
DWIDTH 20 0
BBX 11 3 5 2
BITMAP
ffe0
ffe0
ffe0
ENDCHAR
STARTCHAR DblUpDownArrow
ENCODING 144
SWIDTH 600 0
DWIDTH 20 0
BBX 15 24 3 0
BITMAP
0100
0380
07c0
0fe0
1ef0
3c78
7c7c
fc7e
7c7c
1c70
1c70
1c70
1c70
1c70
1c70
7c7c
fc7e
7c7c
3c78
1ef0
0fe0
07c0
0380
0100
ENDCHAR
STARTCHAR DblUpExtens1
ENCODING 145
SWIDTH 600 0
DWIDTH 20 0
BBX 9 7 6 0
BITMAP
e380
e380
e380
e380
e380
e380
e380
ENDCHAR
STARTCHAR DblLongLArrow
ENCODING 146
SWIDTH 1200 0
DWIDTH 41 0
BBX 39 15 1 0
BITMAP
0100000000
0380000000
07c0000000
0ffffffffe
1ffffffffe
3ffffffffe
7c00000000
f800000000
7c00000000
3ffffffffe
1ffffffffe
0ffffffffe
07c0000000
0380000000
0100000000
ENDCHAR
STARTCHAR DblExtens
ENCODING 147
SWIDTH 200 0
DWIDTH 7 0
BBX 7 9 0 3
BITMAP
fe
fe
fe
00
00
00
fe
fe
fe
ENDCHAR
STARTCHAR DblLongRArrow
ENCODING 148
SWIDTH 1200 0
DWIDTH 41 0
BBX 39 15 1 0
BITMAP
0000000100
0000000380
00000007c0
ffffffffe0
fffffffff0
fffffffff8
000000007c
000000003e
000000007c
fffffffff8
fffffffff0
ffffffffe0
00000007c0
0000000380
0000000100
ENDCHAR
STARTCHAR DblLRArrow2
ENCODING 149
SWIDTH 790 0
DWIDTH 27 0
BBX 25 15 1 0
BITMAP
01004000
0380e000
07c1f000
0ffff800
1ffffc00
3ffffe00
7c001f00
f8000f80
7c001f00
3ffffe00
1ffffc00
0ffff800
07c1f000
0380e000
01004000
ENDCHAR
STARTCHAR DblLongLRArrow
ENCODING 150
SWIDTH 1200 0
DWIDTH 41 0
BBX 39 15 1 0
BITMAP
0100000100
0380000380
07c00007c0
0fffffffe0
1ffffffff0
3ffffffff8
7c0000007c
f80000003e
7c0000007c
3ffffffff8
1ffffffff0
0fffffffe0
07c00007c0
0380000380
0100000100
ENDCHAR
STARTCHAR UpDownArrow
ENCODING 151
SWIDTH 600 0
DWIDTH 20 0
BBX 15 24 3 0
BITMAP
0100
0380
07c0
0fe0
1ff0
3ff8
7bbc
f39e
2388
0380
0380
0380
0380
0380
0380
2388
f39e
7bbc
3ff8
1ff0
0fe0
07c0
0380
0100
ENDCHAR
STARTCHAR LongLArrow
ENCODING 152
SWIDTH 1200 0
DWIDTH 41 0
BBX 39 15 1 0
BITMAP
0100000000
0380000000
07c0000000
0f00000000
1f00000000
3e00000000
7ffffffffe
fffffffffe
7ffffffffe
3e00000000
1f00000000
0f00000000
07c0000000
0380000000
0100000000
ENDCHAR
STARTCHAR LongRArrow
ENCODING 153
SWIDTH 1200 0
DWIDTH 41 0
BBX 39 15 1 0
BITMAP
0000000100
0000000380
00000007c0
00000001e0
00000001f0
00000000f8
fffffffffc
fffffffffe
fffffffffc
00000000f8
00000001f0
00000001e0
00000007c0
0000000380
0000000100
ENDCHAR
STARTCHAR LongLRArrow
ENCODING 154
SWIDTH 1200 0
DWIDTH 41 0
BBX 39 15 1 0
BITMAP
0100000100
0380000380
07c00007c0
0f000001e0
1f000001f0
3e000000f8
7ffffffffc
fffffffffe
7ffffffffc
3e000000f8
1f000001f0
0f000001e0
07c00007c0
0380000380
0100000100
ENDCHAR
STARTCHAR ColonEqual
ENCODING 155
SWIDTH 733 0
DWIDTH 25 0
BBX 23 13 1 1
BITMAP
780000
fc0000
fc7ffe
fc7ffe
787ffe
000000
000000
000000
787ffe
fc7ffe
fc7ffe
fc0000
780000
ENDCHAR
STARTCHAR Diamond2
ENCODING 156
SWIDTH 600 0
DWIDTH 20 0
BBX 15 15 3 2
BITMAP
0100
0380
07c0
0fe0
1ef0
3c78
783c
f01e
783c
3c78
1ef0
0fe0
07c0
0380
0100
ENDCHAR
STARTCHAR NotSquareSprsetEqual
ENCODING 157
SWIDTH 600 0
DWIDTH 20 0
BBX 15 20 3 -2
BITMAP
ffc0
fff0
fff8
007c
001c
001e
000e
000e
000e
000e
001e
001c
007c
fff8
fff0
ffc0
0000
fffc
fffc
fffc
ENDCHAR
STARTCHAR AtSign
ENCODING 158
SWIDTH 600 0
DWIDTH 20 0
BBX 19 21 1 -1
BITMAP
03f800
0fff00
1e0f80
3803c0
3001c0
71c0e0
67fe60
e73e60
ce1c60
cc1c60
cc1c60
cc3860
cc38c0
ce79c0
e7ff80
639f00
700000
380000
1e0700
0fff00
03fe00
ENDCHAR
STARTCHAR Solidmedsqr
ENCODING 159
SWIDTH 600 0
DWIDTH 20 0
BBX 14 13 3 3
BITMAP
fffc
fffc
fffc
fffc
fffc
fffc
fffc
fffc
fffc
fffc
fffc
fffc
fffc
ENDCHAR
STARTCHAR OverDot
ENCODING 160
SWIDTH 600 0
DWIDTH 20 0
BBX 4 4 8 1
BITMAP
60
f0
f0
60
ENDCHAR
STARTCHAR CurlyCapUpsilon
ENCODING 161
SWIDTH 600 0
DWIDTH 20 0
BBX 19 19 1 0
BITMAP
fc03c0
fe0fe0
ff1fe0
07bc60
03b860
01f860
01f000
01f000
00e000
00e000
00e000
00e000
00e000
00e000
00e000
00e000
07ff00
07ff00
07ff00
ENDCHAR
STARTCHAR Prime
ENCODING 162
SWIDTH 411 0
DWIDTH 14 0
BBX 9 11 3 2
BITMAP
0f80
0f80
1f00
1e00
3e00
3c00
7800
7800
7000
e000
e000
ENDCHAR
STARTCHAR LessEqual
ENCODING 163
SWIDTH 600 0
DWIDTH 20 0
BBX 14 18 3 0
BITMAP
0004
001c
007c
01f8
07e0
1f00
7c00
f800
3e00
1f80
07e0
01f8
007c
001c
0004
fffc
fffc
fffc
ENDCHAR
STARTCHAR Fraction
ENCODING 164
SWIDTH 600 0
DWIDTH 20 0
BBX 18 23 1 0
BITMAP
0003c0
000780
000700
000f00
000e00
001c00
003c00
003800
007000
007000
00e000
01e000
01c000
038000
038000
070000
0f0000
0e0000
1c0000
3c0000
380000
780000
f00000
ENDCHAR
STARTCHAR Infinity
ENCODING 165
SWIDTH 735 0
DWIDTH 25 0
BBX 23 13 1 1
BITMAP
0f83f0
3fe7f8
70fe1c
e03c0e
c01806
c01806
c01806
c01806
e03c0e
707c0c
78ff1c
3fe7f8
0f81e0
ENDCHAR
STARTCHAR RuleDelayed
ENCODING 166
SWIDTH 740 0
DWIDTH 25 0
BBX 24 15 1 0
BITMAP
000080
7801c0
fc03e0
fc01f0
fc00f8
78007c
01fffe
01ffff
01fffe
78007c
fc00f8
fc01f0
fc03e0
7801c0
000080
ENDCHAR
STARTCHAR ClubSuit
ENCODING 167
SWIDTH 600 0
DWIDTH 20 0
BBX 19 19 1 0
BITMAP
00f000
03f800
03f800
07fc00
07fc00
07fc00
07fc00
03f800
03f800
3bfb80
7fffc0
ffffe0
ffffe0
ffffe0
ffffe0
7e4fc0
3c4780
004000
00e000
ENDCHAR
STARTCHAR DiamondSuit
ENCODING 168
SWIDTH 600 0
DWIDTH 20 0
BBX 17 19 2 0
BITMAP
008000
008000
01c000
03e000
07f000
0f7800
1e3c00
3c1e00
780f00
f00780
780f00
3c1e00
1e3c00
0f7800
07f000
03e000
01c000
00c000
008000
ENDCHAR
STARTCHAR HeartSuit
ENCODING 169
SWIDTH 600 0
DWIDTH 20 0
BBX 19 20 1 -1
BITMAP
3e1f80
7fbfc0
e3f8e0
c0e060
c00060
c00060
c000e0
6000c0
7001c0
380380
3c0780
1e0f00
0f1e00
07bc00
03f800
01f000
01f000
00e000
004000
004000
ENDCHAR
STARTCHAR SpadeSuit
ENCODING 170
SWIDTH 600 0
DWIDTH 20 0
BBX 15 19 3 0
BITMAP
0100
0100
0380
07c0
07e0
0fe0
1ff0
3ff8
7ffc
7ffc
fffe
fffe
fffe
fffe
fffe
7d7c
1110
0100
0380
ENDCHAR
STARTCHAR LRArrow
ENCODING 171
SWIDTH 790 0
DWIDTH 27 0
BBX 25 15 1 0
BITMAP
01004000
0380e000
07c1f000
0f007800
1f007c00
3e003e00
7fffff00
ffffff80
7fffff00
3e003e00
1f007c00
0f007800
07c1f000
0380e000
01004000
ENDCHAR
STARTCHAR LArrow
ENCODING 172
SWIDTH 720 0
DWIDTH 24 0
BBX 23 15 1 0
BITMAP
010000
038000
07c000
0f8000
1f0000
3e0000
7ffffe
fffffe
7ffffe
3e0000
1f0000
0f8000
07c000
038000
010000
ENDCHAR
STARTCHAR UpArrow
ENCODING 173
SWIDTH 600 0
DWIDTH 20 0
BBX 15 22 3 0
BITMAP
0100
0380
07c0
0fe0
1ff0
3ff8
7bbc
f39e
2388
0380
0380
0380
0380
0380
0380
0380
0380
0380
0380
0380
0380
0380
ENDCHAR
STARTCHAR RArrow
ENCODING 174
SWIDTH 720 0
DWIDTH 24 0
BBX 24 15 1 0
BITMAP
000180
0003c0
0007e0
0003f0
0001f8
0000fc
fffffe
ffffff
fffffe
0000fc
0001f8
0003f0
0007e0
0003c0
000180
ENDCHAR
STARTCHAR DownArrow
ENCODING 175
SWIDTH 600 0
DWIDTH 20 0
BBX 15 22 3 0
BITMAP
0380
0380
0380
0380
0380
0380
0380
0380
0380
0380
0380
0380
0380
2388
f39e
7bbc
3ff8
1ff0
0fe0
07c0
0380
0100
ENDCHAR
STARTCHAR Degree
ENCODING 176
SWIDTH 600 0
DWIDTH 20 0
BBX 12 12 4 12
BITMAP
0f00
3fc0
7fe0
70e0
e070
e070
e070
e070
70e0
7fe0
3fc0
0f00
ENDCHAR
STARTCHAR PlusMinus
ENCODING 177
SWIDTH 600 0
DWIDTH 20 0
BBX 13 17 4 0
BITMAP
0700
0700
0700
0700
0700
fff8
fff8
fff8
0700
0700
0700
0700
0700
0000
fff8
fff8
fff8
ENDCHAR
STARTCHAR DoublePrime
ENCODING 178
SWIDTH 649 0
DWIDTH 22 0
BBX 17 11 3 2
BITMAP
0f8f80
0f0f80
1f1f00
1e1e00
3c3e00
3c3c00
783800
707800
707000
e0e000
c0e000
ENDCHAR
STARTCHAR GreaterEqual
ENCODING 179
SWIDTH 600 0
DWIDTH 20 0
BBX 15 18 3 0
BITMAP
c000
f000
fc00
7f00
1fc0
03f0
00fc
007e
01f8
07f0
1fc0
7f00
fc00
f000
c000
fffe
fffe
fffe
ENDCHAR
STARTCHAR Multiply
ENCODING 180
SWIDTH 600 0
DWIDTH 20 0
BBX 15 16 3 0
BITMAP
4004
e00e
f01e
783c
3c78
1ef0
0fe0
07c0
07c0
0fe0
1ef0
3c78
783c
f01e
e00e
4004
ENDCHAR
STARTCHAR Proportional
ENCODING 181
SWIDTH 600 0
DWIDTH 20 0
BBX 19 13 1 1
BITMAP
0f0780
3f8fe0
7fdfe0
70fc40
f0f800
e07000
e07000
e07000
f0f800
71fc40
7fffe0
3fdfe0
0f07c0
ENDCHAR
STARTCHAR PartialDiff
ENCODING 182
SWIDTH 600 0
DWIDTH 20 0
BBX 17 22 2 -1
BITMAP
01f800
07fc00
0ffe00
0e0f00
040700
000380
03f380
0ffb80
1fff80
3c1f80
780f80
700780
e00780
e00700
e00f00
e00f00
e01e00
f01e00
787c00
7ff800
3ff000
0fc000
ENDCHAR
STARTCHAR Bullet
ENCODING 183
SWIDTH 600 0
DWIDTH 20 0
BBX 9 8 6 6
BITMAP
3e00
7f00
ff80
ff80
ff80
ff80
7f00
3e00
ENDCHAR
STARTCHAR Divide
ENCODING 184
SWIDTH 600 0
DWIDTH 20 0
BBX 12 15 4 0
BITMAP
0600
0f00
0f00
0600
0000
0000
fff0
fff0
fff0
0000
0000
0600
0f00
0f00
0600
ENDCHAR
STARTCHAR NotEqual
ENCODING 185
SWIDTH 600 0
DWIDTH 20 0
BBX 14 23 3 -4
BITMAP
0030
0070
0070
0060
00e0
00c0
00c0
fffc
fffc
fffc
0380
0300
0700
fffc
fffc
fffc
0e00
0c00
1c00
1800
3800
3800
3000
ENDCHAR
STARTCHAR Equivalence
ENCODING 186
SWIDTH 600 0
DWIDTH 20 0
BBX 14 13 3 1
BITMAP
fffc
fffc
fffc
0000
0000
fffc
fffc
fffc
0000
0000
fffc
fffc
fffc
ENDCHAR
STARTCHAR Approxequal
ENCODING 187
SWIDTH 600 0
DWIDTH 20 0
BBX 15 11 2 2
BITMAP
1e08
3f9e
7ffc
f3f8
20f0
0000
1e08
3f9e
7ffc
f3f8
20f0
ENDCHAR
STARTCHAR Ellipsis
ENCODING 188
SWIDTH 995 0
DWIDTH 34 0
BBX 28 6 3 0
BITMAP
780f01e0
fc1f83f0
fc1f83f0
fc1f83f0
fc1f83f0
780f01e0
ENDCHAR
STARTCHAR ArrowVertEx
ENCODING 189
SWIDTH 600 0
DWIDTH 20 0
BBX 3 7 9 0
BITMAP
e0
e0
e0
e0
e0
e0
e0
ENDCHAR
STARTCHAR ArrowHorizEx
ENCODING 190
SWIDTH 200 0
DWIDTH 7 0
BBX 7 3 0 6
BITMAP
fe
fe
fe
ENDCHAR
STARTCHAR CarriageReturn
ENCODING 191
SWIDTH 628 0
DWIDTH 21 0
BBX 18 21 1 0
BITMAP
000040
000040
000040
000040
000040
000040
000040
008040
030040
060040
0c0040
180040
300040
ffffc0
700000
180000
0c0000
060000
030000
018000
008000
ENDCHAR
STARTCHAR Aleph
ENCODING 192
SWIDTH 600 0
DWIDTH 20 0
BBX 18 19 1 0
BITMAP
f00380
780380
380380
1c0380
1e0380
0f0780
0f8700
3f9f00
7ffe00
71f800
70f000
707800
707800
703c00
701e00
700f00
700700
700780
7003c0
ENDCHAR
STARTCHAR IFraktur
ENCODING 193
SWIDTH 337 0
DWIDTH 11 0
BBX 10 21 1 -1
BITMAP
3c00
ff80
ffc0
6700
0e00
0e00
0e00
0e00
0e00
0e00
0e00
0e00
0e00
0e00
0e00
0e00
1e00
3e00
3fc0
0780
0180
ENDCHAR
STARTCHAR RFraktur
ENCODING 194
SWIDTH 654 0
DWIDTH 22 0
BBX 20 21 1 -1
BITMAP
03f800
1ffe00
7e0f00
fe0380
ee0380
4e0380
0e0700
0e1f00
0e7c00
0ffe00
0ffe00
0e0e00
0e0700
0e0700
0e0780
0e0380
1e03c0
3e01e0
3f80f0
078070
018020
ENDCHAR
STARTCHAR Weierstrass
ENCODING 195
SWIDTH 600 0
DWIDTH 20 0
BBX 18 20 1 -5
BITMAP
003c00
00ff00
01ff80
e3c380
e783c0
f701c0
7e01c0
7c01c0
3801c0
38c1c0
3cc1c0
3ee380
7ee780
76ff00
777f00
773c00
770000
7f0000
3e0000
1c0000
ENDCHAR
STARTCHAR CircleMultiply
ENCODING 196
SWIDTH 600 0
DWIDTH 20 0
BBX 20 21 0 -1
BITMAP
01f800
07fe00
0fff00
1f0f80
3c03c0
7e07e0
7f0fe0
f79ef0
e3fc70
e1f870
e0f070
e1f870
e3fc70
f79ef0
7f0fe0
7e07e0
3c03c0
1f0780
0fff00
07fe00
01f800
ENDCHAR
STARTCHAR CirclePlus
ENCODING 197
SWIDTH 600 0
DWIDTH 20 0
BBX 21 20 0 0
BITMAP
01fc00
07ff00
0fff80
1f77c0
3c71e0
3870e0
707070
707070
707070
fffff8
fffff8
fffff8
707070
707070
7870f0
3c71e0
1e73c0
0fff80
07ff00
01fc00
ENDCHAR
STARTCHAR EmptySet
ENCODING 198
SWIDTH 600 0
DWIDTH 20 0
BBX 18 29 1 -5
BITMAP
000f00
000e00
000e00
001e00
03fc00
0ffc00
1ffe00
3e3f00
783f80
707380
707380
e071c0
e0e1c0
e0e1c0
e1e1c0
e1c1c0
e1c1c0
e3c1c0
738380
738380
7f0780
3f1f00
1ffe00
0ffc00
0ff000
0e0000
1c0000
1c0000
3c0000
ENDCHAR
STARTCHAR Union
ENCODING 199
SWIDTH 628 0
DWIDTH 21 0
BBX 19 24 1 0
BITMAP
e000e0
e000e0
e000e0
e000e0
e000e0
e000e0
e000e0
e000e0
e000e0
e000e0
e000e0
e000e0
e000e0
e000e0
e000e0
e000e0
e000e0
e000e0
f001e0
7803c0
3c0780
1fff00
0ffe00
03f800
ENDCHAR
STARTCHAR Intersection
ENCODING 200
SWIDTH 628 0
DWIDTH 21 0
BBX 19 24 1 0
BITMAP
03f800
0ffe00
1fff80
3c0780
7803c0
f001e0
e000e0
e000e0
e000e0
e000e0
e000e0
e000e0
e000e0
e000e0
e000e0
e000e0
e000e0
e000e0
e000e0
e000e0
e000e0
e000e0
e000e0
e000e0
ENDCHAR
STARTCHAR ProperSuperset
ENCODING 201
SWIDTH 600 0
DWIDTH 20 0
BBX 15 17 3 0
BITMAP
ffc0
fff0
fff8
007c
003c
001c
000e
000e
000e
000e
000e
001e
003c
007c
fff8
fff0
ffc0
ENDCHAR
STARTCHAR NbSpace
ENCODING 202
SWIDTH 263 0
DWIDTH 9 0
BBX 0 0 0 0
BITMAP
ENDCHAR
STARTCHAR NotSubset
ENCODING 203
SWIDTH 600 0
DWIDTH 20 0
BBX 14 24 3 -4
BITMAP
00e0
00e0
00e0
07fc
1ffc
3ffc
7dc0
71c0
7180
e180
e380
e380
e380
e300
f300
7700
7f00
3ffc
1ffc
07fc
0e00
0e00
0e00
0c00
ENDCHAR
STARTCHAR ProperSubset
ENCODING 204
SWIDTH 600 0
DWIDTH 20 0
BBX 15 17 3 0
BITMAP
07fe
1ffe
3ffe
7e00
7800
f800
f000
f000
f000
f000
f000
f800
7800
7e00
3ffe
1ffe
07fe
ENDCHAR
STARTCHAR ReflexSubset
ENCODING 205
SWIDTH 600 0
DWIDTH 20 0
BBX 14 20 3 -2
BITMAP
07fc
1ffc
3ffc
7c00
7000
f000
e000
e000
e000
e000
f000
7000
7c00
3ffc
1ffc
07fc
0000
7ffc
7ffc
7ffc
ENDCHAR
STARTCHAR Element
ENCODING 206
SWIDTH 600 0
DWIDTH 20 0
BBX 15 17 2 0
BITMAP
03fe
0ffe
1ffe
3c00
7800
7000
7000
fffe
fffe
fffe
7000
7000
7800
3c00
1ffe
0ffe
03fe
ENDCHAR
STARTCHAR NotElement
ENCODING 207
SWIDTH 600 0
DWIDTH 20 0
BBX 15 24 2 -4
BITMAP
0070
0060
0060
03fe
0ffe
1ffe
3cc0
78c0
71c0
71c0
fffe
fffe
fffe
7380
7380
7b80
3f00
1ffe
0ffe
07fe
0700
0600
0600
0e00
ENDCHAR
STARTCHAR Angle
ENCODING 208
SWIDTH 600 0
DWIDTH 20 0
BBX 16 15 2 0
BITMAP
0700
0700
0e00
0e00
0e00
1c00
1c00
3800
3800
3800
7000
7000
ffff
ffff
ffff
ENDCHAR
STARTCHAR Gradient
ENCODING 209
SWIDTH 600 0
DWIDTH 20 0
BBX 19 21 1 -2
BITMAP
ffffe0
ffffe0
7fffc0
7001c0
380380
380380
1c0700
1c0700
1e0f00
0e0e00
0e0e00
071c00
071c00
03b800
03b800
01f000
01f000
00e000
00e000
004000
004000
ENDCHAR
STARTCHAR RegTM
ENCODING 210
SWIDTH 600 0
DWIDTH 20 0
BBX 20 21 0 -1
BITMAP
01f800
07fe00
0f0780
1c01c0
3800c0
73f8e0
63fc60
619c70
c19c30
c19c30
c1f830
c1f830
c19c30
e18c30
63c760
73c760
3800c0
1c01c0
0f0780
07fe00
01f800
ENDCHAR
STARTCHAR Copyright
ENCODING 211
SWIDTH 600 0
DWIDTH 20 0
BBX 20 21 0 -1
BITMAP
01f800
07fe00
1e0f00
380380
3000c0
61fce0
67fc60
c71c70
ce0c30
cc0030
cc0030
cc0030
ce0030
e70860
67fc60
71f0e0
3001c0
180380
0e0f00
07fe00
01f800
ENDCHAR
STARTCHAR TM
ENCODING 212
SWIDTH 797 0
DWIDTH 27 0
BBX 25 11 1 8
BITMAP
ffdf9f80
ffdf9f80
ccc79b00
ccc69b00
0c06fb00
0c06f300
0c06f300
0c067300
0c066300
3f9f0f80
3f9f0f80
ENDCHAR
STARTCHAR Product
ENCODING 213
SWIDTH 679 0
DWIDTH 23 0
BBX 20 24 2 0
BITMAP
fffff0
fffff0
fffff0
380380
380380
380380
380380
380380
380380
380380
380380
380380
380380
380380
380380
380380
380380
380380
380380
380380
380380
fe0ff0
fe0ff0
fe0ff0
ENDCHAR
STARTCHAR Radical
ENCODING 214
SWIDTH 600 0
DWIDTH 20 0
BBX 20 34 1 -7
BITMAP
000070
0000e0
0000e0
0000e0
0000c0
0001c0
0001c0
0001c0
000180
000380
000380
000380
040300
1c0700
7c0700
fe0700
fe0600
ce0e00
070e00
070e00
039c00
039c00
039c00
01dc00
01f800
00f800
00f800
00f800
007000
007000
003000
003000
002000
001000
ENDCHAR
STARTCHAR DotMath
ENCODING 215
SWIDTH 600 0
DWIDTH 20 0
BBX 5 4 8 5
BITMAP
70
f8
f8
70
ENDCHAR
STARTCHAR LogicalNot
ENCODING 216
SWIDTH 600 0
DWIDTH 20 0
BBX 14 8 3 3
BITMAP
fffc
fffc
fffc
001c
001c
001c
001c
001c
ENDCHAR
STARTCHAR Wedge
ENCODING 217
SWIDTH 694 0
DWIDTH 24 0
BBX 20 19 2 0
BITMAP
006000
00f000
00f000
01f800
01f800
03fc00
039c00
079e00
070e00
0f0f00
0e0700
1e0780
1c0380
3c03c0
3801c0
7801e0
7000e0
f000f0
e00070
ENDCHAR
STARTCHAR Vee
ENCODING 218
SWIDTH 692 0
DWIDTH 24 0
BBX 20 19 2 0
BITMAP
e00070
f000f0
7000e0
7801e0
3801c0
3c03c0
1c0380
1e0780
0e0700
0f0f00
070e00
079e00
039c00
03fc00
01f800
01f800
00f000
00f000
006000
ENDCHAR
STARTCHAR DblLRArrow
ENCODING 219
SWIDTH 790 0
DWIDTH 27 0
BBX 25 15 1 0
BITMAP
01004000
0380e000
07c1f000
0ffff800
1ffffc00
3ffffe00
7c001f00
f8000f80
7c001f00
3ffffe00
1ffffc00
0ffff800
07c1f000
0380e000
01004000
ENDCHAR
STARTCHAR DblLArrow
ENCODING 220
SWIDTH 720 0
DWIDTH 24 0
BBX 23 15 1 0
BITMAP
008000
038000
07c000
0ffffe
1ffffe
3ffffe
7c0000
f80000
7c0000
3ffffe
1ffffe
0ffffe
07c000
018000
008000
ENDCHAR
STARTCHAR DblUpArrow
ENCODING 221
SWIDTH 600 0
DWIDTH 20 0
BBX 15 22 3 0
BITMAP
0100
0380
07c0
0fe0
1ef0
3c78
7c7c
fc7e
7c7c
3c74
1c70
1c70
1c70
1c70
1c70
1c70
1c70
1c70
1c70
1c70
1c70
1c70
ENDCHAR
STARTCHAR DblRArrow
ENCODING 222
SWIDTH 720 0
DWIDTH 24 0
BBX 24 15 1 0
BITMAP
000100
0003c0
0007e0
fffff0
fffff8
fffffc
00007e
00003f
00007e
fffffc
fffff8
fffff0
0007e0
000380
000100
ENDCHAR
STARTCHAR DblDownArrow
ENCODING 223
SWIDTH 600 0
DWIDTH 20 0
BBX 16 22 3 0
BITMAP
1e78
1e78
1e78
1e78
1e78
1e78
1e78
1e78
1e78
1e78
1e78
1e78
3e7c
7e7e
fe7f
7e7e
3e7c
1ff8
0ff0
07e0
03c0
0180
ENDCHAR
STARTCHAR Lozenge
ENCODING 224
SWIDTH 600 0
DWIDTH 20 0
BBX 14 21 3 -1
BITMAP
0100
0300
0780
0780
0fc0
0cc0
1ce0
3870
3870
7038
e01c
7038
3870
3870
1ce0
0cc0
0fc0
0780
0780
0300
0100
ENDCHAR
STARTCHAR LAngle
ENCODING 225
SWIDTH 600 0
DWIDTH 20 0
BBX 11 25 4 -4
BITMAP
00e0
01e0
01c0
0380
0780
0700
0e00
0e00
1c00
3c00
3800
7000
f000
7000
3800
3c00
1c00
0e00
0e00
0700
0780
0380
01c0
01e0
00e0
ENDCHAR
STARTCHAR Diffd
ENCODING 226
SWIDTH 598 0
DWIDTH 20 0
BBX 19 22 1 -1
BITMAP
001fc0
00ffc0
00ffc0
0018c0
0018c0
0018c0
0f98c0
1ff8c0
3ff8c0
7878c0
7038c0
e018c0
e018c0
e018c0
e018c0
e018c0
f038c0
7038c0
787fe0
3fffe0
1fffe0
078000
ENDCHAR
STARTCHAR Expe
ENCODING 227
SWIDTH 600 0
DWIDTH 20 0
BBX 17 16 2 -1
BITMAP
07e000
1ff800
3ffe00
7b9e00
760f00
e60700
cfff00
cfff00
cfff00
ce0000
e60000
770300
7b8f00
3fff80
1ffe00
03f000
ENDCHAR
STARTCHAR Imagi
ENCODING 228
SWIDTH 600 0
DWIDTH 20 0
BBX 18 22 1 0
BITMAP
01e000
01e000
01e000
01e000
01e000
000000
000000
7ff800
7ff800
7ff800
073800
073800
073800
073800
073800
073800
073800
073800
073800
ffffc0
ffffc0
ffffc0
ENDCHAR
STARTCHAR Sum
ENCODING 229
SWIDTH 650 0
DWIDTH 22 0
BBX 19 24 2 0
BITMAP
7fffc0
7fffc0
3c00c0
1e00c0
0e00c0
0f00c0
0780c0
03c000
01c000
01e000
00f000
007800
00f000
00e000
01c000
03c000
078000
0f00e0
1e00e0
3c00e0
7800e0
f000e0
ffffe0
ffffe0
ENDCHAR
STARTCHAR LParenTop
ENCODING 230
SWIDTH 600 0
DWIDTH 20 0
BBX 9 29 9 -2
BITMAP
0380
0700
0700
0e00
0e00
1c00
1c00
1800
3800
3800
3000
7000
7000
7000
7000
7000
6000
e000
e000
e000
e000
e000
e000
e000
e000
e000
e000
e000
e000
ENDCHAR
STARTCHAR LParenEx
ENCODING 231
SWIDTH 600 0
DWIDTH 20 0
BBX 3 11 9 0
BITMAP
e0
e0
e0
e0
e0
e0
e0
e0
e0
e0
e0
ENDCHAR
STARTCHAR LParenBot
ENCODING 232
SWIDTH 600 0
DWIDTH 20 0
BBX 9 29 9 0
BITMAP
e000
e000
e000
e000
e000
e000
e000
e000
e000
e000
e000
e000
6000
7000
7000
7000
7000
7000
3000
3800
3800
1800
1c00
1c00
0e00
0e00
0700
0700
0380
ENDCHAR
STARTCHAR LBracketTop
ENCODING 233
SWIDTH 600 0
DWIDTH 20 0
BBX 9 5 9 0
BITMAP
ff80
ff80
ff80
e000
e000
ENDCHAR
STARTCHAR LBracketEx
ENCODING 234
SWIDTH 600 0
DWIDTH 20 0
BBX 3 11 9 0
BITMAP
e0
e0
e0
e0
e0
e0
e0
e0
e0
e0
e0
ENDCHAR
STARTCHAR LBracketBot
ENCODING 235
SWIDTH 600 0
DWIDTH 20 0
BBX 9 5 9 0
BITMAP
e000
e000
ff80
ff80
ff80
ENDCHAR
STARTCHAR LBraceTop
ENCODING 236
SWIDTH 600 0
DWIDTH 20 0
BBX 10 23 9 -2
BITMAP
03c0
0fc0
3fc0
3c00
7800
7000
f000
e000
e000
e000
e000
e000
e000
e000
e000
e000
e000
e000
e000
e000
e000
e000
e000
ENDCHAR
STARTCHAR LBraceMid
ENCODING 237
SWIDTH 600 0
DWIDTH 20 0
BBX 11 25 1 -5
BITMAP
00e0
00e0
00e0
00e0
00e0
00e0
01e0
01c0
03c0
0780
1f80
ff00
fc00
ff00
1f80
0780
03c0
01c0
01e0
00e0
00e0
00e0
00e0
00e0
00e0
ENDCHAR
STARTCHAR LBraceBot
ENCODING 238
SWIDTH 600 0
DWIDTH 20 0
BBX 10 23 9 0
BITMAP
e000
e000
e000
e000
e000
e000
e000
e000
e000
e000
e000
e000
e000
e000
e000
e000
f000
7000
7800
3c00
3fc0
0fc0
03c0
ENDCHAR
STARTCHAR BraceEx
ENCODING 239
SWIDTH 600 0
DWIDTH 20 0
BBX 3 11 9 0
BITMAP
e0
e0
e0
e0
e0
e0
e0
e0
e0
e0
e0
ENDCHAR
STARTCHAR Slot
ENCODING 240
SWIDTH 600 0
DWIDTH 20 0
BBX 19 19 0 0
BITMAP
0e0700
0e0700
0e0700
ffffe0
ffffe0
ffffe0
0e0700
0e0700
0e0700
0e0700
0e0700
0e0700
0e0700
ffffe0
ffffe0
ffffe0
0e0700
0e0700
0e0700
ENDCHAR
STARTCHAR RAngle
ENCODING 241
SWIDTH 600 0
DWIDTH 20 0
BBX 11 25 5 -4
BITMAP
e000
f000
7000
3800
3c00
1c00
0e00
0e00
0700
0780
0380
01c0
01e0
01c0
0380
0780
0700
0e00
0e00
1c00
3c00
3800
7000
f000
e000
ENDCHAR
STARTCHAR Intergral
ENCODING 242
SWIDTH 682 0
DWIDTH 23 0
BBX 19 35 2 -6
BITMAP
000f00
003fc0
007fe0
0071e0
007040
00e000
00e000
00e000
00e000
00e000
00e000
00e000
00e000
00e000
00e000
00e000
00e000
00e000
00e000
00e000
00e000
00e000
00e000
00e000
00e000
00e000
00e000
00e000
00e000
00e000
21c000
f3c000
ffc000
7f8000
1e0000
ENDCHAR
STARTCHAR IntegralTop
ENCODING 243
SWIDTH 870 0
DWIDTH 30 0
BBX 24 35 2 -6
BITMAP
000007
000007
000007
000007
000007
000007
000007
000007
000007
000007
000007
000007
000007
000007
000007
000007
000007
000007
000007
00000e
00000e
00000e
00000e
00001e
00001c
00001c
00003c
000038
400078
f000f0
f801e0
7e07c0
3fff80
0fff00
03fc00
ENDCHAR
STARTCHAR IntegralEx
ENCODING 244
SWIDTH 870 0
DWIDTH 30 0
BBX 3 26 23 0
BITMAP
e0
e0
e0
e0
e0
e0
e0
e0
e0
e0
e0
e0
e0
e0
e0
e0
e0
e0
e0
e0
e0
e0
e0
e0
e0
e0
ENDCHAR
STARTCHAR IntegralBot
ENCODING 245
SWIDTH 870 0
DWIDTH 30 0
BBX 24 35 23 -6
BITMAP
003f80
00ffe0
03fff8
07e0fc
0f803f
0f000e
1e0004
1c0000
3c0000
380000
780000
700000
700000
700000
f00000
e00000
e00000
e00000
e00000
e00000
e00000
e00000
e00000
e00000
e00000
e00000
e00000
e00000
e00000
e00000
e00000
e00000
e00000
e00000
e00000
ENDCHAR
STARTCHAR RParenTop
ENCODING 246
SWIDTH 600 0
DWIDTH 20 0
BBX 9 29 3 -2
BITMAP
e000
e000
7000
7800
3800
3800
1c00
1c00
0e00
0e00
0e00
0700
0700
0700
0700
0700
0300
0380
0380
0380
0380
0380
0380
0380
0380
0380
0380
0380
0380
ENDCHAR
STARTCHAR RParenEx
ENCODING 247
SWIDTH 600 0
DWIDTH 20 0
BBX 3 11 9 0
BITMAP
e0
e0
e0
e0
e0
e0
e0
e0
e0
e0
e0
ENDCHAR
STARTCHAR RParenBot
ENCODING 248
SWIDTH 600 0
DWIDTH 20 0
BBX 9 29 3 0
BITMAP
0380
0380
0380
0380
0380
0380
0380
0380
0380
0380
0380
0380
0300
0700
0700
0700
0700
0700
0e00
0e00
0e00
1c00
1c00
3800
3800
7800
7000
e000
e000
ENDCHAR
STARTCHAR RBracketTop
ENCODING 249
SWIDTH 600 0
DWIDTH 20 0
BBX 9 5 3 0
BITMAP
ff80
ff80
ff80
0380
0380
ENDCHAR
STARTCHAR RBracketEx
ENCODING 250
SWIDTH 600 0
DWIDTH 20 0
BBX 3 11 9 0
BITMAP
e0
e0
e0
e0
e0
e0
e0
e0
e0
e0
e0
ENDCHAR
STARTCHAR RBracketBot
ENCODING 251
SWIDTH 600 0
DWIDTH 20 0
BBX 9 5 3 0
BITMAP
0380
0380
ff80
ff80
ff80
ENDCHAR
STARTCHAR RBraceTop
ENCODING 252
SWIDTH 600 0
DWIDTH 20 0
BBX 11 23 1 -2
BITMAP
f800
fe00
ff00
0f80
03c0
01c0
01e0
00e0
00e0
00e0
00e0
00e0
00e0
00e0
00e0
00e0
00e0
00e0
00e0
00e0
00e0
00e0
00e0
ENDCHAR
STARTCHAR RBraceMid
ENCODING 253
SWIDTH 600 0
DWIDTH 20 0
BBX 10 25 9 -5
BITMAP
e000
e000
e000
e000
e000
e000
e000
7000
7000
7800
3e00
1fc0
0fc0
1fc0
3e00
7800
7000
7000
e000
e000
e000
e000
e000
e000
e000
ENDCHAR
STARTCHAR RBraceBot
ENCODING 254
SWIDTH 600 0
DWIDTH 20 0
BBX 11 23 1 0
BITMAP
00e0
00e0
00e0
00e0
00e0
00e0
00e0
00e0
00e0
00e0
00e0
00e0
00e0
00e0
00e0
00e0
01e0
01c0
03c0
0f80
ff00
fe00
f800
ENDCHAR
STARTCHAR Wolf
ENCODING 255
SWIDTH 918 0
DWIDTH 31 0
BBX 29 28 1 -6
BITMAP
00080000
00101000
00183000
00183000
00387000
003cf000
003df000
007fe000
007f6000
00666000
00e76000
00e3e000
00c1e000
01c0e000
01847000
0387fc00
0707de00
07004f00
0ff00780
0fffffc0
1cffffe0
381c3ff0
38180008
70180000
70180000
e0380000
c0380000
40000000
ENDCHAR
ENDFONT
